<?xml version="1.0" encoding="utf-8"?>
<!-- Generator: Adobe Illustrator 25.0.1, SVG Export Plug-In . SVG Version: 6.00 Build 0)  -->
<svg version="1.1" id="Capa_1" xmlns="http://www.w3.org/2000/svg" xmlns:xlink="http://www.w3.org/1999/xlink" x="0px" y="0px"
	 viewBox="0 0 326 100" style="enable-background:new 0 0 326 100;" xml:space="preserve">
<style type="text/css">
	.st0{fill:#0090C9;}
	.st1{fill:#FFFFFF;}
	.st2{fill:#F8B10F;}
	.st3{fill:#656565;}
</style>
<path class="st0" d="M74.4,9.9c-5.7,0-10.2,1.9-13.3,5.8C58.4,19.1,57,24,57,30.3v29.2c0,6.2,1.4,11.1,4.1,14.6l0.1,0.1
	C64.2,78,68.7,80,74.4,80c5.7,0,10.2-2,13.2-5.8c2.8-3.5,4.2-8.4,4.2-14.7V40.5H76.4v9.9h4.1v9c0,3.5-0.6,6.2-1.8,7.7
	c-0.5,0.7-1.5,1.6-4.3,1.6c-2.8,0-3.8-0.9-4.4-1.6c-1.2-1.5-1.8-4.1-1.8-7.7V30.3c0-3.1,0.4-4.8,0.7-5.6c0.5-1.4,1.1-2.1,1.4-2.4
	c0.5-0.4,0.9-0.7,1.4-0.8c0.9-0.2,1.8-0.3,2.6-0.3c0.8,0,1.6,0.1,2.5,0.3c0.5,0.1,0.9,0.4,1.4,0.8c0.3,0.3,0.9,1,1.4,2.4
	c0.3,0.9,0.7,2.6,0.7,5.7v5.7h11.3v-5.7c0-6.3-1.4-11.2-4.2-14.6C84.5,11.8,80.1,9.9,74.4,9.9z"/>
<rect x="101.1" y="9.9" class="st0" width="11.2" height="70.1"/>
<path class="st0" d="M136.6,9.8c-5.5,0-10.1,2.3-13.4,6.6l0,0.1c-2.6,3.7-4,8.4-4,13.9c0,3.3,0.6,6.2,1.8,8.7c1.1,2.3,2.5,4.2,4,5.8
	c1.5,1.5,3.2,2.8,4.9,3.7c1.5,0.8,2.7,1.4,3.7,1.8l1.5,0.6c0.7,0.3,1.6,0.7,2.7,1.2c0.8,0.4,1.5,0.9,2.3,1.6
	c0.7,0.6,1.3,1.5,1.8,2.5c0.5,0.9,0.7,2.1,0.7,3.6c0,3.1-0.6,5.4-1.8,7c-0.7,0.9-1.8,1.8-4.3,1.8c-0.8,0-1.6-0.1-2.6-0.3
	c-0.5-0.1-1-0.4-1.4-0.8c-0.3-0.3-0.9-1-1.4-2.4c-0.3-0.9-0.7-2.6-0.7-5.7v-5.6h-11.2v5.6c0,6.5,1.4,11.3,4.2,14.7
	c3,3.8,7.4,5.8,13.2,5.8c5.6,0,10.2-2.2,13.3-6.3c2.8-3.6,4.2-8.2,4.2-13.7c0-3.3-0.6-6.3-1.9-8.7c-1.2-2.3-2.6-4.2-4.2-5.7
	c-1.6-1.5-3.3-2.6-5-3.5c-1.4-0.7-2.5-1.2-3.4-1.5l-1.4-0.6l-0.1-0.1c-0.8-0.3-1.7-0.7-2.7-1.3c-0.8-0.4-1.6-1-2.4-1.8
	c-0.7-0.7-1.3-1.6-1.8-2.6c-0.5-0.9-0.7-2.2-0.7-3.8c0-3,0.7-5.5,1.9-7.2l0-0.1c1-1.4,2.2-2,4.2-2c3.2,0,4.1,1.1,4.4,1.5
	c0.8,1,1.8,3.2,1.8,7.8V36h11.3v-5.7c0-6.3-1.4-11.2-4.2-14.7C146.7,11.7,142.2,9.8,136.6,9.8z"/>
<polygon class="st0" points="184.8,39.3 174.5,39.3 174.5,9.9 163.2,9.9 163.2,80 174.5,80 174.5,50.6 184.8,50.6 184.8,80 
	196.1,80 196.1,9.9 184.8,9.9 "/>
<path class="st0" d="M226.7,60.6c0,2.8-0.4,4.3-0.6,5.1c-0.5,1.3-1,1.9-1.2,2.1c-0.5,0.4-0.8,0.6-1.1,0.6c-0.8,0.2-1.5,0.3-2.2,0.3
	c-0.7,0-1.5-0.1-2.3-0.3c-0.2-0.1-0.6-0.2-1.1-0.6c-0.2-0.2-0.7-0.8-1.2-2.1c-0.3-0.8-0.6-2.3-0.6-5.1V9.8h-11.2v50.8
	c0,3.7,0.5,6.7,1.4,9.2c1,2.6,2.3,4.7,4,6.2c1.7,1.6,3.6,2.6,5.7,3.2c1.8,0.5,3.6,0.7,5.4,0.7c1.7,0,3.5-0.2,5.3-0.7
	c2.1-0.6,4.1-1.7,5.7-3.3c1.6-1.5,2.9-3.6,3.9-6.2c1-2.5,1.4-5.5,1.4-9.2V9.8h-11.2V60.6z"/>
<path class="st0" d="M276.6,44.9C276.6,44.8,276.7,44.8,276.6,44.9c2.8-3.5,4.2-8.4,4.2-14.7c0-6.4-1.3-11.2-4.1-14.7l-0.1-0.1
	c-3.1-3.7-7.7-5.5-13.7-5.5h-14.4V80h14.4c6,0,10.6-1.9,13.7-5.5l0.1-0.1c2.8-3.5,4.1-8.3,4.1-14.7
	C280.8,53.2,279.4,48.4,276.6,44.9L276.6,44.9z M267.9,67.2c-1,1.2-3.3,1.5-5,1.5h-3V50.5h3c2.4,0,4.1,0.5,4.9,1.5l0,0.1
	c0.6,0.7,1.6,2.7,1.6,7.6C269.5,64.6,268.5,66.5,267.9,67.2z M267.9,37.7L267.9,37.7c-0.8,1.1-2.5,1.6-4.9,1.6h-3V21.1h3
	c1.7,0,4,0.3,5,1.5c0.6,0.7,1.5,2.6,1.5,7.6C269.5,35,268.5,36.9,267.9,37.7z"/>
<line class="st1" x1="68.7" y1="48.1" x2="68.7" y2="48.7"/>
<line class="st1" x1="68.7" y1="62.6" x2="68.7" y2="62.1"/>
<path class="st0" d="M23.9,29.7c3.5,0,17.4-0.1,17.4-5.3c0-5.2-14-5.3-17.4-5.3c-3.5,0-17.4,0.1-17.4,5.3
	C6.5,29.6,20.5,29.7,23.9,29.7z"/>
<path class="st0" d="M6.5,43L6.5,43c4.3,3.2,14.4,3.3,17.4,3.3c3,0,13.1-0.1,17.3-3.3c0,0,0.2-0.2,0.2-0.2l0-14.5
	c-4.1,3.4-14.4,3.5-17.4,3.4c-3,0-13.3-0.1-17.4-3.4v8.1L6.5,43l0-14L6.5,43z M35.4,38.7h1.8v3.4h-1.8V38.7z"/>
<path class="st0" d="M23.9,48.5c-3,0-13.3-0.1-17.4-3.4v8v6.5l0-13.9l0,14h0.1c4.2,3.2,14.3,3.3,17.3,3.3c3,0,13.1-0.1,17.3-3.3
	c0,0,0.2-0.2,0.2-0.2l0-14.6C37.2,48.4,26.9,48.5,23.9,48.5z M37.2,58.9h-1.8v-3.4h1.8V58.9z"/>
<path class="st0" d="M23.9,64.8c-3,0-13.3-0.1-17.4-3.4v8.1V76l0-13.9l0,14h0.1c4.2,3.2,14.3,3.3,17.3,3.3c3,0,13.1-0.1,17.3-3.3
	c0,0,0.2-0.2,0.2-0.2l0-14.6C37.2,64.7,26.9,64.9,23.9,64.8z M37.2,74.5h-1.8V71h1.8V74.5z"/>
<g>
	<g>
		<path class="st2" d="M23.7,1.9c-4.4,0-8,3.6-8,8c0,1.3,0.3,2.6,1,3.8l6.6,11.9c0.1,0.2,0.3,0.3,0.4,0.3c0.2,0,0.3-0.1,0.4-0.3
			l6.6-11.9c0.6-1.2,1-2.5,1-3.8C31.7,5.5,28.1,1.9,23.7,1.9z M23.7,13.9c-2.2,0-4-1.8-4-4c0-2.2,1.8-4,4-4c2.2,0,4,1.8,4,4
			C27.7,12.1,25.9,13.9,23.7,13.9z"/>
	</g>
</g>
<g>
	<g>
		<path class="st3" d="M123.8,95.3c0.2-0.6,0.3-1.1,0.2-1.5c-0.1-0.4-0.4-0.7-0.9-1.1c-1-0.6-1.7-1.2-2.1-2
			c-0.3-0.7-0.3-1.8,0.2-3.1c0.5-1.3,1.2-2.4,2.2-3.2s2.1-1.2,3.2-1.2c1.1,0,1.9,0.5,2.2,1.4s0.3,2.1-0.2,3.5l0,0.1h-2.2
			c0.3-0.7,0.3-1.3,0.2-1.8c-0.1-0.5-0.4-0.7-0.9-0.7c-0.5,0-0.9,0.2-1.3,0.6c-0.4,0.4-0.7,0.9-0.9,1.4c-0.2,0.5-0.2,1,0,1.3
			c0.2,0.3,0.5,0.7,1.1,1.1c0.9,0.5,1.5,1.2,1.8,2c0.3,0.8,0.2,1.9-0.3,3.2c-0.5,1.4-1.2,2.5-2.2,3.3c-1,0.8-2,1.2-3.1,1.2
			c-1.1,0-1.9-0.4-2.4-1.3c-0.5-0.9-0.4-2.2,0.2-3.8l0-0.1h2.2c-0.4,1-0.5,1.7-0.3,2.1s0.5,0.7,1.2,0.7c0.5,0,0.9-0.2,1.3-0.5
			S123.6,95.9,123.8,95.3z"/>
		<path class="st3" d="M129.2,92.8c0.6-1.6,1.3-2.9,2.3-3.9c1-1,2-1.5,3.2-1.5c1.1,0,1.8,0.5,2.1,1.5c0.3,1,0.1,2.3-0.5,3.9
			l-0.5,1.5c-0.6,1.6-1.4,2.9-2.3,3.9c-1,1-2,1.5-3.1,1.5c-1.1,0-1.8-0.5-2.1-1.5c-0.3-1-0.1-2.3,0.5-3.9L129.2,92.8z M131,94.3
			c-0.3,0.9-0.5,1.6-0.5,2.2s0.2,0.8,0.7,0.8c0.5,0,0.9-0.3,1.2-0.8c0.4-0.5,0.7-1.2,1.1-2.2l0.5-1.5c0.3-0.9,0.5-1.6,0.5-2.2
			s-0.2-0.8-0.7-0.8c-0.5,0-0.9,0.3-1.3,0.8c-0.4,0.5-0.7,1.3-1,2.1L131,94.3z"/>
		<path class="st3" d="M136.9,99.5l3.4-9.7h-1.1l0.8-2.3h1.1l0.5-1.3c0.5-1.3,1.1-2.4,1.9-3.1c0.8-0.7,1.6-1.1,2.5-1.1
			c0.2,0,0.3,0,0.5,0.1c0.2,0,0.3,0.1,0.6,0.2l-1,2.4c-0.1,0-0.2-0.1-0.3-0.1c-0.1,0-0.2,0-0.3,0c-0.3,0-0.6,0.1-0.8,0.4
			s-0.5,0.7-0.7,1.2l-0.5,1.3h1.4l-0.8,2.3h-1.4l-3.4,9.7H136.9z"/>
		<path class="st3" d="M150.9,84.6l-1.1,3h1.2l-0.8,2.3h-1.2l-2.1,6c-0.2,0.5-0.2,0.8-0.2,1c0,0.2,0.1,0.3,0.3,0.3
			c0.1,0,0.3,0,0.4,0c0.1,0,0.2,0,0.4-0.1l-0.7,2.4c-0.3,0.1-0.5,0.2-0.8,0.2c-0.2,0-0.5,0.1-0.8,0.1c-0.7,0-1.2-0.3-1.4-0.9
			c-0.2-0.6,0-1.6,0.5-3l2.1-6h-1l0.8-2.3h1l1.1-3H150.9z"/>
		<path class="st3" d="M157.6,94.4L157.6,94.4l3.3-6.8h2.1l-6,11.9h-1.9l1.1-6.4h0l-3.5,6.4h-1.9l2.4-11.9h2.1l-1.6,6.8h0l3.6-6.8
			h1.5L157.6,94.4z"/>
		<path class="st3" d="M165.2,99.5c0-0.2,0-0.4,0.1-0.7c0-0.2,0.1-0.5,0.1-0.7c-0.4,0.5-0.8,0.9-1.2,1.2c-0.4,0.3-0.8,0.4-1.2,0.4
			c-0.7,0-1.2-0.3-1.4-1c-0.2-0.6-0.1-1.5,0.3-2.6c0.4-1.2,1-2.1,1.8-2.7c0.8-0.6,1.7-1,2.8-1h0.9l0.3-1c0.2-0.6,0.3-1,0.2-1.3
			c0-0.3-0.2-0.5-0.5-0.5c-0.3,0-0.5,0.1-0.7,0.4s-0.4,0.6-0.6,1.1l-2.2,0v-0.1c0.3-1,0.9-1.9,1.8-2.7c0.8-0.7,1.8-1.1,2.7-1.1
			c0.9,0,1.5,0.4,1.8,1.1c0.3,0.7,0.2,1.8-0.2,3.1l-1.7,4.8c-0.2,0.6-0.4,1.1-0.5,1.6c-0.1,0.5-0.2,1-0.3,1.5H165.2z M164.5,97.4
			c0.2,0,0.5-0.1,0.7-0.3c0.3-0.2,0.5-0.4,0.7-0.7l0.8-2.2h-0.9c-0.4,0-0.7,0.2-0.9,0.5c-0.3,0.3-0.5,0.8-0.7,1.3
			c-0.1,0.4-0.2,0.7-0.1,1C164.1,97.3,164.3,97.4,164.5,97.4z"/>
		<path class="st3" d="M177.2,90.5l-0.9,0c-0.2,0-0.5,0.1-0.7,0.2s-0.4,0.4-0.6,0.7l-2.9,8.2h-2.3l4.2-11.9h2.1l-0.5,1.6l0,0
			c0.3-0.6,0.7-1,1.1-1.4s0.7-0.5,1.1-0.5c0.1,0,0.2,0,0.3,0c0.1,0,0.2,0.1,0.3,0.1L177.2,90.5z"/>
		<path class="st3" d="M179.6,99.8c-1.1,0-1.8-0.5-2.1-1.5s-0.2-2.2,0.4-3.7l0.6-1.7c0.6-1.6,1.3-2.9,2.3-4c1-1,2-1.5,3-1.5
			c1,0,1.7,0.5,1.9,1.4c0.2,0.9,0.1,2.2-0.5,3.8l-0.7,1.9h-4.3l0,0c-0.3,0.8-0.4,1.4-0.3,1.9c0.1,0.5,0.4,0.8,0.9,0.8
			c0.4,0,0.8-0.1,1.1-0.2c0.3-0.1,0.7-0.4,1.2-0.7l-0.1,2c-0.4,0.4-1,0.7-1.6,1C180.8,99.6,180.2,99.8,179.6,99.8z M182.9,89.9
			c-0.4,0-0.7,0.2-1.1,0.7c-0.3,0.5-0.7,1.1-1,1.9h2.1l0.2-0.4c0.2-0.7,0.3-1.2,0.3-1.5C183.4,90.1,183.2,89.9,182.9,89.9z"/>
		<path class="st3" d="M194.2,99.5c0-0.2,0-0.4,0.1-0.7c0-0.2,0.1-0.5,0.1-0.7c-0.4,0.5-0.8,0.9-1.2,1.2s-0.8,0.4-1.2,0.4
			c-0.7,0-1.2-0.3-1.4-1c-0.2-0.6-0.1-1.5,0.3-2.6c0.4-1.2,1-2.1,1.8-2.7c0.8-0.6,1.7-1,2.8-1h0.9l0.3-1c0.2-0.6,0.3-1,0.2-1.3
			c0-0.3-0.2-0.5-0.5-0.5c-0.3,0-0.5,0.1-0.7,0.4c-0.2,0.2-0.4,0.6-0.6,1.1l-2.2,0v-0.1c0.3-1,0.9-1.9,1.8-2.7
			c0.9-0.7,1.8-1.1,2.7-1.1c0.9,0,1.5,0.4,1.8,1.1c0.3,0.7,0.2,1.8-0.2,3.1l-1.7,4.8c-0.2,0.6-0.4,1.1-0.5,1.6
			c-0.1,0.5-0.2,1-0.3,1.5H194.2z M193.5,97.4c0.2,0,0.5-0.1,0.7-0.3c0.3-0.2,0.5-0.4,0.7-0.7l0.8-2.2h-0.9c-0.4,0-0.7,0.2-0.9,0.5
			c-0.3,0.3-0.5,0.8-0.7,1.3c-0.1,0.4-0.2,0.7-0.1,1C193.1,97.3,193.2,97.4,193.5,97.4z"/>
		<path class="st3" d="M211.7,84.6l-1.1,3h1.2l-0.8,2.3h-1.2l-2.1,6c-0.2,0.5-0.2,0.8-0.2,1s0.1,0.3,0.3,0.3c0.1,0,0.3,0,0.4,0
			c0.1,0,0.2,0,0.4-0.1l-0.7,2.4c-0.3,0.1-0.5,0.2-0.8,0.2c-0.2,0-0.5,0.1-0.8,0.1c-0.7,0-1.2-0.3-1.4-0.9c-0.2-0.6,0-1.6,0.5-3
			l2.1-6h-1l0.8-2.3h1l1.1-3H211.7z"/>
		<path class="st3" d="M215.1,98.2c-0.4,0.5-0.9,0.9-1.3,1.2c-0.4,0.3-0.9,0.4-1.3,0.4c-0.8,0-1.3-0.4-1.4-1.2
			c-0.2-0.8,0.1-2.1,0.7-3.7l2.6-7.2h2.3l-2.6,7.3c-0.3,0.8-0.4,1.5-0.4,1.8c0,0.4,0.2,0.6,0.5,0.6c0.3,0,0.5-0.1,0.7-0.2
			c0.2-0.1,0.5-0.3,0.7-0.6l3.2-8.9h2.3l-4.2,11.9h-2L215.1,98.2z"/>
		<path class="st3" d="M230.8,87.6l-0.5,1.5c0.4-0.6,0.9-1,1.3-1.3c0.5-0.3,0.9-0.5,1.4-0.5c0.4,0,0.8,0.2,1,0.5s0.3,0.8,0.2,1.5
			c0.4-0.6,0.9-1.1,1.4-1.4c0.5-0.3,1-0.5,1.4-0.5c0.7,0,1.1,0.4,1.3,1.2s-0.1,2.1-0.7,3.7l-2.6,7.2h-2.3l2.6-7.2
			c0.3-0.9,0.5-1.6,0.5-1.9c0-0.4-0.2-0.5-0.5-0.5c-0.2,0-0.4,0.1-0.7,0.3c-0.2,0.2-0.5,0.4-0.7,0.7c0,0.1-0.1,0.3-0.1,0.4
			c0,0.1-0.1,0.3-0.1,0.4l-2.8,7.8h-2.3l2.6-7.2c0.3-0.9,0.5-1.5,0.5-1.9c0-0.4-0.2-0.5-0.5-0.5c-0.2,0-0.4,0.1-0.6,0.2
			s-0.4,0.3-0.6,0.6l-3.1,8.8h-2.3l4.2-11.9H230.8z"/>
		<path class="st3" d="M241.1,99.8c-1.1,0-1.8-0.5-2.1-1.5c-0.3-1-0.2-2.2,0.4-3.7l0.6-1.7c0.6-1.6,1.3-2.9,2.3-4c1-1,2-1.5,3-1.5
			c1,0,1.7,0.5,1.9,1.4c0.2,0.9,0.1,2.2-0.5,3.8l-0.7,1.9h-4.3l0,0c-0.3,0.8-0.4,1.4-0.3,1.9c0.1,0.5,0.4,0.8,0.9,0.8
			c0.4,0,0.8-0.1,1.1-0.2s0.7-0.4,1.2-0.7l-0.1,2c-0.4,0.4-1,0.7-1.6,1S241.7,99.8,241.1,99.8z M244.4,89.9c-0.4,0-0.7,0.2-1.1,0.7
			c-0.3,0.5-0.7,1.1-1,1.9h2.1l0.2-0.4c0.2-0.7,0.3-1.2,0.3-1.5C245,90.1,244.8,89.9,244.4,89.9z"/>
		<path class="st3" d="M248.4,93.6c0.7-1.9,1.5-3.4,2.4-4.5s1.8-1.7,2.8-1.7c0.3,0,0.6,0.1,0.8,0.3c0.2,0.2,0.3,0.5,0.4,0.9l2.3-6.3
			h2.3l-6.1,17.2h-2l0.3-1.3c-0.4,0.5-0.8,0.9-1.2,1.1c-0.4,0.3-0.8,0.4-1.2,0.4c-0.9,0-1.4-0.5-1.6-1.6c-0.1-1.1,0.1-2.5,0.8-4.3
			L248.4,93.6z M250.6,93.9c-0.4,1.1-0.6,1.9-0.6,2.5c0,0.6,0.2,0.9,0.6,0.9c0.2,0,0.5-0.1,0.7-0.2c0.2-0.2,0.5-0.4,0.7-0.7l1.9-5.4
			c0-0.3-0.1-0.6-0.2-0.8c-0.1-0.2-0.3-0.3-0.5-0.3c-0.4,0-0.9,0.3-1.3,1s-0.8,1.6-1.3,2.7L250.6,93.9z"/>
		<path class="st3" d="M258.3,99.5H256l4.2-11.9h2.3L258.3,99.5z M263.6,84.7h-2.3l0.9-2.4h2.3L263.6,84.7z"/>
		<path class="st3" d="M263,93.6c0.7-1.9,1.5-3.4,2.4-4.5s1.8-1.7,2.8-1.7c0.3,0,0.6,0.1,0.8,0.3c0.2,0.2,0.3,0.5,0.4,0.9l2.3-6.3
			h2.3l-6.1,17.2h-2l0.3-1.3c-0.4,0.5-0.8,0.9-1.2,1.1c-0.4,0.3-0.8,0.4-1.2,0.4c-0.9,0-1.4-0.5-1.6-1.6c-0.1-1.1,0.1-2.5,0.8-4.3
			L263,93.6z M265.2,93.9c-0.4,1.1-0.6,1.9-0.6,2.5c0,0.6,0.2,0.9,0.6,0.9c0.2,0,0.5-0.1,0.7-0.2c0.2-0.2,0.5-0.4,0.7-0.7l1.9-5.4
			c0-0.3-0.1-0.6-0.2-0.8c-0.1-0.2-0.3-0.3-0.5-0.3c-0.4,0-0.9,0.3-1.3,1s-0.9,1.6-1.3,2.7L265.2,93.9z"/>
		<path class="st3" d="M274.7,99.5c0-0.2,0-0.4,0.1-0.7c0-0.2,0.1-0.5,0.1-0.7c-0.4,0.5-0.8,0.9-1.2,1.2c-0.4,0.3-0.8,0.4-1.2,0.4
			c-0.7,0-1.2-0.3-1.4-1c-0.2-0.6-0.1-1.5,0.3-2.6c0.4-1.2,1-2.1,1.8-2.7c0.8-0.6,1.7-1,2.8-1h0.9l0.3-1c0.2-0.6,0.3-1,0.2-1.3
			c0-0.3-0.2-0.5-0.5-0.5c-0.3,0-0.5,0.1-0.7,0.4s-0.4,0.6-0.6,1.1l-2.2,0v-0.1c0.3-1,0.9-1.9,1.8-2.7c0.8-0.7,1.8-1.1,2.7-1.1
			c0.9,0,1.5,0.4,1.8,1.1c0.3,0.7,0.2,1.8-0.2,3.1l-1.7,4.8c-0.2,0.6-0.4,1.1-0.5,1.6c-0.1,0.5-0.2,1-0.3,1.5H274.7z M274,97.4
			c0.2,0,0.5-0.1,0.7-0.3c0.3-0.2,0.5-0.4,0.7-0.7l0.8-2.2h-0.9c-0.4,0-0.7,0.2-0.9,0.5c-0.3,0.3-0.5,0.8-0.7,1.3
			c-0.1,0.4-0.2,0.7-0.1,1C273.6,97.3,273.8,97.4,274,97.4z"/>
	</g>
</g>
</svg>
