<?xml version="1.0" encoding="utf-8"?>
<!-- Generator: Adobe Illustrator 25.0.1, SVG Export Plug-In . SVG Version: 6.00 Build 0)  -->
<svg version="1.1" id="Capa_1" xmlns="http://www.w3.org/2000/svg" xmlns:xlink="http://www.w3.org/1999/xlink" x="0px" y="0px"
	 viewBox="0 0 285.6 104" style="enable-background:new 0 0 285.6 104;" xml:space="preserve">
<style type="text/css">
	.st0{fill:none;}
	.st1{fill:#FFFFFF;}
</style>
<ellipse class="st0" cx="20.6" cy="9" rx="5.6" ry="4.5"/>
<path class="st1" d="M26.9,18.6l-5.7,8.3c-0.1,0.2-0.4,0.3-0.7,0.3s-0.5-0.1-0.7-0.3l-5.6-8.2C8.9,19.1,2.5,20.4,2.5,24
	c0,5.5,14.9,5.6,18.5,5.6c3.7,0.1,18.5-0.2,18.5-5.6C39.5,20.2,32.5,19,26.9,18.6z"/>
<path class="st1" d="M71.9,10c-5.8,0-10.3,2-13.5,5.9c-2.8,3.5-4.2,8.5-4.2,14.8v29.7c0,6.3,1.4,11.3,4.1,14.9l0.1,0.1
	c3.1,3.9,7.7,5.9,13.5,5.9c5.8,0,10.3-2,13.4-5.9c2.8-3.6,4.3-8.6,4.3-14.9V41.1H74v10.1h4.1v9.1c0,3.6-0.6,6.3-1.8,7.8
	c-0.5,0.7-1.6,1.6-4.3,1.6c-2.9,0-3.9-0.9-4.5-1.6c-1.2-1.5-1.8-4.2-1.8-7.8V30.7c0-3.1,0.4-4.8,0.7-5.7c0.5-1.4,1.1-2.1,1.4-2.4
	c0.5-0.4,0.9-0.7,1.5-0.8c0.9-0.2,1.8-0.3,2.6-0.3c0.8,0,1.6,0.1,2.5,0.3c0.5,0.1,1,0.4,1.4,0.8c0.4,0.3,0.9,1,1.4,2.4
	c0.3,0.9,0.7,2.6,0.7,5.7v5.8h11.5v-5.8c0-6.4-1.4-11.4-4.3-14.9C82.2,11.9,77.7,10,71.9,10z"/>
<rect x="99.1" y="10" class="st1" width="11.4" height="71.2"/>
<path class="st1" d="M135.2,9.9c-5.6,0-10.3,2.3-13.6,6.8v0.1c-2.7,3.8-4.1,8.5-4.1,14.1c0,3.4,0.6,6.3,1.8,8.8
	c1.1,2.3,2.5,4.3,4.1,5.9c1.6,1.6,3.3,2.8,5,3.7c1.5,0.8,2.8,1.4,3.8,1.8l1.6,0.6c0.7,0.3,1.6,0.7,2.7,1.2c0.8,0.4,1.6,0.9,2.3,1.6
	c0.7,0.6,1.3,1.5,1.9,2.6c0.5,0.9,0.7,2.1,0.7,3.7c0,3.2-0.6,5.5-1.8,7.1c-0.7,0.9-1.8,1.9-4.4,1.9c-0.8,0-1.7-0.1-2.6-0.3
	c-0.5-0.1-1-0.4-1.5-0.8c-0.4-0.3-0.9-1-1.4-2.4c-0.3-0.9-0.7-2.6-0.7-5.8v-5.7h-11.4v5.7c0,6.6,1.4,11.5,4.3,15
	c3.1,3.9,7.6,5.9,13.4,5.9c5.6,0,10.3-2.2,13.5-6.4c2.8-3.7,4.2-8.4,4.2-13.9c0-3.4-0.6-6.4-1.9-8.8c-1.2-2.3-2.6-4.2-4.3-5.8
	c-1.6-1.5-3.3-2.7-5.1-3.5c-1.4-0.7-2.6-1.2-3.5-1.5l-1.4-0.6l-0.1-0.1c-0.8-0.3-1.7-0.8-2.8-1.3c-0.8-0.4-1.6-1-2.4-1.8
	c-0.7-0.7-1.3-1.6-1.9-2.7c-0.5-1-0.7-2.2-0.7-3.8c0-3.1,0.7-5.6,2-7.3v-0.1c1-1.4,2.3-2,4.2-2c3.2,0,4.2,1.2,4.5,1.5
	c0.8,1,1.8,3.3,1.8,7.9V37h11.5v-5.8c0-6.4-1.4-11.4-4.3-15C145.4,11.9,140.9,9.9,135.2,9.9z"/>
<polygon class="st1" points="184.1,39.9 173.7,39.9 173.7,10 162.2,10 162.2,81.2 173.7,81.2 173.7,51.3 184.1,51.3 184.1,81.2 
	195.7,81.2 195.7,10 184.1,10 "/>
<path class="st1" d="M226.7,61.5c0,2.8-0.4,4.4-0.7,5.1c-0.5,1.3-1,1.9-1.2,2.2c-0.5,0.5-0.8,0.6-1.1,0.6c-0.8,0.2-1.6,0.3-2.2,0.3
	c-0.7,0-1.5-0.1-2.3-0.3c-0.2-0.1-0.6-0.2-1.1-0.6c-0.2-0.2-0.7-0.8-1.2-2.2c-0.3-0.8-0.7-2.3-0.7-5.1V9.9h-11.4v51.6
	c0,3.7,0.5,6.8,1.4,9.3c1,2.6,2.4,4.7,4.1,6.3c1.7,1.6,3.6,2.7,5.8,3.3c1.8,0.5,3.7,0.8,5.5,0.8c1.7,0,3.6-0.3,5.4-0.8
	c2.2-0.6,4.1-1.7,5.8-3.3c1.6-1.6,3-3.7,4-6.3c1-2.5,1.4-5.6,1.4-9.3V9.9h-11.4v51.6H226.7z"/>
<path class="st1" d="M277.5,45.5L277.5,45.5c2.8-3.6,4.3-8.6,4.3-14.9c0-6.5-1.4-11.4-4.2-14.9l-0.1-0.1c-3.1-3.7-7.8-5.6-13.9-5.6
	H249v71.2h14.6c6.1,0,10.7-1.9,13.9-5.6l0.1-0.1c2.8-3.5,4.2-8.4,4.2-14.9C281.7,54,280.3,49.2,277.5,45.5L277.5,45.5z M268.6,68.2
	c-1,1.3-3.3,1.5-5,1.5h-3.1V51.2h3.1c2.5,0,4.1,0.5,4.9,1.5v0.1c0.6,0.7,1.6,2.7,1.6,7.7C270.2,65.6,269.2,67.5,268.6,68.2z
	 M268.6,38.2L268.6,38.2c-0.9,1.1-2.5,1.6-5,1.6h-3.1V21.4h3.1c1.7,0,4,0.3,5,1.5c0.6,0.7,1.6,2.7,1.6,7.7
	C270.2,35.5,269.2,37.5,268.6,38.2z"/>
<line class="st0" x1="66.1" y1="48.8" x2="66.1" y2="49.5"/>
<line class="st0" x1="66.1" y1="61.5" x2="66.1" y2="61"/>
<path class="st1" d="M2.6,43.7L2.6,43.7c4.5,3.4,15.3,3.4,18.4,3.5c3.2,0,13.9-0.1,18.3-3.5l0.2-0.2l-0.1-15.4
	c-4.3,3.6-15.3,3.7-18.5,3.6c-3.2,0-14.1-0.1-18.5-3.6v8.6v6.9V28.9L2.6,43.7z M33.2,39.1h1.9v3.6h-1.9V39.1z"/>
<path class="st1" d="M21,49.5c-3.2-0.1-14.1-0.1-18.5-3.6v8.5v6.9V46.6v14.8h0.1c4.4,3.4,15.2,3.5,18.3,3.5c3.2,0,13.9-0.1,18.3-3.5
	l0.2-0.2l-0.1-15.4C35.2,49.4,24.2,49.6,21,49.5z M35.1,60.6h-1.9V57h1.9V60.6z"/>
<path class="st1" d="M21,66.8c-3.2,0-14.1-0.1-18.5-3.6v8.6v6.9V64v14.9h0.1c4.5,3.3,15.3,3.4,18.4,3.4c3.2,0.1,13.9-0.1,18.3-3.5
	l0.2-0.2l-0.1-15.4C35.2,66.7,24.2,66.9,21,66.8z M35.1,77.1h-1.9v-3.6h1.9V77.1z"/>
<g>
	<g>
		<path class="st1" d="M20.8,0.2c-4.7,0-8.5,3.8-8.5,8.4c0,1.4,0.4,2.8,1,4l7,12.6c0.1,0.2,0.3,0.3,0.5,0.3s0.4-0.1,0.5-0.3l7-12.6
			c0.7-1.2,1-2.6,1-4C29.3,3.9,25.5,0.2,20.8,0.2z M20.8,12.8c-2.3,0-4.2-1.9-4.2-4.2s1.9-4.2,4.2-4.2S25,6.3,25,8.6
			C25,10.9,23.1,12.8,20.8,12.8z"/>
	</g>
</g>
<g>
	<path class="st1" d="M119.3,99c0.2-0.6,0.3-1.2,0.2-1.5c-0.1-0.4-0.4-0.7-0.9-1.1c-1-0.6-1.8-1.3-2.1-2c-0.4-0.8-0.3-1.8,0.2-3.2
		c0.5-1.4,1.2-2.5,2.3-3.3c1-0.9,2.1-1.3,3.3-1.3c1.2,0,1.9,0.5,2.3,1.4s0.3,2.2-0.2,3.6l0,0.1H122c0.3-0.8,0.3-1.4,0.2-1.8
		c-0.1-0.5-0.4-0.7-0.9-0.7c-0.5,0-0.9,0.2-1.3,0.6c-0.4,0.4-0.7,0.9-0.9,1.5c-0.2,0.5-0.2,1,0,1.3c0.2,0.4,0.5,0.7,1.1,1.2
		c1,0.5,1.6,1.2,1.9,2c0.3,0.8,0.2,1.9-0.3,3.3c-0.5,1.4-1.3,2.6-2.2,3.4c-1,0.8-2.1,1.2-3.2,1.2c-1.2,0-2-0.5-2.5-1.4
		c-0.5-0.9-0.5-2.2,0.2-4l0-0.1h2.3c-0.4,1-0.5,1.8-0.3,2.2c0.2,0.4,0.6,0.7,1.2,0.7c0.5,0,0.9-0.2,1.3-0.5
		C118.8,100.1,119.1,99.6,119.3,99z"/>
	<path class="st1" d="M124.9,96.4c0.6-1.7,1.4-3,2.4-4.1c1-1.1,2.1-1.6,3.3-1.6s1.9,0.5,2.1,1.6s0.1,2.4-0.5,4.1l-0.5,1.5
		c-0.6,1.7-1.4,3-2.4,4.1c-1,1-2.1,1.6-3.3,1.6c-1.2,0-1.9-0.5-2.2-1.6c-0.3-1-0.1-2.4,0.5-4.1L124.9,96.4z M126.8,97.9
		c-0.3,1-0.5,1.7-0.5,2.2s0.2,0.8,0.7,0.8c0.5,0,0.9-0.3,1.3-0.8c0.4-0.5,0.8-1.3,1.1-2.2l0.5-1.5c0.3-0.9,0.5-1.7,0.5-2.2
		c0-0.6-0.2-0.8-0.7-0.8c-0.5,0-0.9,0.3-1.3,0.8c-0.4,0.6-0.8,1.3-1.1,2.2L126.8,97.9z"/>
	<path class="st1" d="M132.9,103.3l3.5-10h-1.1l0.8-2.3h1.1l0.5-1.4c0.5-1.4,1.1-2.4,1.9-3.2c0.8-0.7,1.7-1.1,2.6-1.1
		c0.2,0,0.4,0,0.5,0.1c0.2,0,0.4,0.1,0.6,0.2l-1.1,2.5c-0.1,0-0.2-0.1-0.3-0.1c-0.1,0-0.2,0-0.4,0c-0.3,0-0.6,0.1-0.8,0.4
		c-0.3,0.3-0.5,0.7-0.7,1.3l-0.5,1.4h1.5l-0.8,2.3h-1.5l-3.5,10H132.9z"/>
	<path class="st1" d="M147.3,87.9l-1.1,3.1h1.3l-0.8,2.3h-1.3l-2.2,6.2c-0.2,0.5-0.3,0.9-0.2,1.1c0,0.2,0.1,0.3,0.3,0.3
		c0.1,0,0.3,0,0.4,0s0.2-0.1,0.4-0.1l-0.7,2.5c-0.3,0.1-0.6,0.2-0.8,0.2c-0.2,0-0.5,0.1-0.8,0.1c-0.8,0-1.2-0.3-1.4-1
		c-0.2-0.6,0-1.7,0.5-3.1l2.2-6.2H142l0.8-2.3h1.1l1.1-3.1H147.3z"/>
	<path class="st1" d="M154.2,98L154.2,98l3.4-7h2.2l-6.2,12.3h-2l1.1-6.6h0l-3.6,6.6h-2l2.5-12.3h2.2l-1.7,7h0.1l3.8-7h1.5L154.2,98
		z"/>
	<path class="st1" d="M162.1,103.3c0-0.2,0-0.4,0.1-0.7c0-0.2,0.1-0.5,0.1-0.7c-0.4,0.5-0.8,0.9-1.2,1.2c-0.4,0.3-0.9,0.5-1.3,0.5
		c-0.7,0-1.2-0.3-1.4-1c-0.2-0.7-0.1-1.6,0.3-2.7c0.4-1.2,1-2.1,1.9-2.8c0.8-0.7,1.8-1,2.9-1h0.9l0.4-1c0.2-0.6,0.3-1.1,0.3-1.4
		c0-0.3-0.2-0.5-0.5-0.5c-0.3,0-0.5,0.1-0.7,0.4c-0.2,0.3-0.4,0.6-0.6,1.1l-2.3,0l0-0.1c0.4-1.1,1-2,1.8-2.7
		c0.9-0.8,1.8-1.1,2.8-1.1c0.9,0,1.6,0.4,1.9,1.1c0.3,0.7,0.2,1.8-0.3,3.2l-1.8,5c-0.2,0.6-0.4,1.2-0.5,1.7c-0.1,0.5-0.2,1-0.3,1.5
		H162.1z M161.3,101.1c0.2,0,0.5-0.1,0.8-0.3s0.5-0.4,0.7-0.7l0.8-2.3h-0.9c-0.4,0-0.7,0.2-1,0.5c-0.3,0.3-0.5,0.8-0.7,1.3
		c-0.1,0.4-0.2,0.7-0.1,1C160.9,101,161.1,101.1,161.3,101.1z"/>
	<path class="st1" d="M174.5,93.9l-0.9,0c-0.2,0-0.5,0.1-0.7,0.3c-0.2,0.2-0.4,0.4-0.6,0.7l-3,8.5h-2.4l4.4-12.3h2.2l-0.5,1.7l0,0
		c0.4-0.6,0.7-1.1,1.1-1.4s0.7-0.5,1.1-0.5c0.1,0,0.2,0,0.3,0c0.1,0,0.2,0.1,0.3,0.1L174.5,93.9z"/>
	<path class="st1" d="M176.9,103.6c-1.1,0-1.9-0.5-2.2-1.5c-0.3-1-0.2-2.3,0.4-3.9l0.6-1.7c0.6-1.7,1.4-3,2.4-4.1
		c1-1.1,2-1.6,3.1-1.6c1.1,0,1.7,0.5,1.9,1.4c0.2,1,0.1,2.3-0.5,3.9l-0.7,2h-4.5l0,0c-0.3,0.8-0.4,1.5-0.3,2
		c0.1,0.5,0.4,0.8,0.9,0.8c0.4,0,0.8-0.1,1.2-0.2c0.3-0.1,0.7-0.4,1.2-0.7l-0.1,2.1c-0.5,0.4-1,0.7-1.6,1
		C178.1,103.4,177.5,103.6,176.9,103.6z M180.3,93.3c-0.4,0-0.7,0.2-1.1,0.7c-0.3,0.5-0.7,1.1-1,1.9h2.1l0.2-0.5
		c0.2-0.7,0.4-1.2,0.3-1.6C180.8,93.5,180.7,93.3,180.3,93.3z"/>
	<path class="st1" d="M192,103.3c0-0.2,0-0.4,0.1-0.7c0-0.2,0.1-0.5,0.1-0.7c-0.4,0.5-0.8,0.9-1.2,1.2c-0.4,0.3-0.9,0.5-1.3,0.5
		c-0.7,0-1.2-0.3-1.4-1c-0.2-0.7-0.1-1.6,0.3-2.7c0.4-1.2,1-2.1,1.9-2.8c0.8-0.7,1.8-1,2.9-1h0.9l0.4-1c0.2-0.6,0.3-1.1,0.3-1.4
		s-0.2-0.5-0.5-0.5c-0.3,0-0.5,0.1-0.7,0.4c-0.2,0.3-0.4,0.6-0.6,1.1l-2.3,0l0-0.1c0.4-1.1,1-2,1.8-2.7c0.9-0.8,1.8-1.1,2.8-1.1
		c0.9,0,1.6,0.4,1.9,1.1c0.3,0.7,0.2,1.8-0.3,3.2l-1.8,5c-0.2,0.6-0.4,1.2-0.5,1.7c-0.1,0.5-0.2,1-0.3,1.5H192z M191.2,101.1
		c0.2,0,0.5-0.1,0.8-0.3c0.3-0.2,0.5-0.4,0.7-0.7l0.8-2.3h-0.9c-0.4,0-0.7,0.2-1,0.5c-0.3,0.3-0.5,0.8-0.7,1.3
		c-0.1,0.4-0.2,0.7-0.1,1C190.8,101,191,101.1,191.2,101.1z"/>
	<path class="st1" d="M210.1,87.9L209,91h1.3l-0.8,2.3h-1.3l-2.2,6.2c-0.2,0.5-0.3,0.9-0.2,1.1c0,0.2,0.1,0.3,0.3,0.3
		c0.1,0,0.3,0,0.4,0s0.2-0.1,0.4-0.1l-0.7,2.5c-0.3,0.1-0.6,0.2-0.8,0.2c-0.2,0-0.5,0.1-0.8,0.1c-0.8,0-1.2-0.3-1.4-1
		c-0.2-0.6,0-1.7,0.5-3.1l2.2-6.2h-1.1l0.8-2.3h1.1l1.1-3.1H210.1z"/>
	<path class="st1" d="M213.6,101.9c-0.4,0.5-0.9,1-1.3,1.2c-0.4,0.3-0.9,0.4-1.3,0.4c-0.8,0-1.3-0.4-1.4-1.2
		c-0.2-0.8,0.1-2.1,0.7-3.9l2.6-7.5h2.4l-2.7,7.5c-0.3,0.9-0.5,1.5-0.4,1.9c0,0.4,0.2,0.6,0.5,0.6c0.3,0,0.5-0.1,0.8-0.2
		c0.2-0.1,0.5-0.3,0.7-0.6l3.3-9.2h2.4l-4.4,12.3h-2.1L213.6,101.9z"/>
	<path class="st1" d="M229.7,91l-0.5,1.6c0.4-0.6,0.9-1,1.4-1.3s0.9-0.5,1.4-0.5c0.5,0,0.8,0.2,1,0.5c0.2,0.3,0.3,0.8,0.2,1.5
		c0.5-0.6,0.9-1.1,1.4-1.5c0.5-0.3,1-0.5,1.5-0.5c0.7,0,1.2,0.4,1.3,1.3c0.1,0.8-0.1,2.1-0.7,3.8l-2.6,7.5h-2.4l2.7-7.5
		c0.3-1,0.5-1.6,0.5-2c0-0.4-0.2-0.5-0.5-0.5c-0.2,0-0.5,0.1-0.7,0.3c-0.2,0.2-0.5,0.4-0.7,0.8c0,0.1-0.1,0.3-0.1,0.4
		c0,0.1-0.1,0.3-0.1,0.4l-2.9,8.1h-2.4l2.7-7.5c0.3-0.9,0.5-1.6,0.5-2c0-0.4-0.2-0.5-0.5-0.5c-0.2,0-0.4,0.1-0.7,0.2
		c-0.2,0.1-0.4,0.4-0.7,0.6l-3.2,9.1h-2.4l4.4-12.3H229.7z"/>
	<path class="st1" d="M240.4,103.6c-1.1,0-1.9-0.5-2.2-1.5c-0.3-1-0.2-2.3,0.4-3.9l0.6-1.7c0.6-1.7,1.4-3,2.4-4.1
		c1-1.1,2-1.6,3.1-1.6c1.1,0,1.7,0.5,1.9,1.4c0.2,1,0.1,2.3-0.5,3.9l-0.7,2H241l0,0c-0.3,0.8-0.4,1.5-0.3,2c0.1,0.5,0.4,0.8,0.9,0.8
		c0.4,0,0.8-0.1,1.2-0.2c0.3-0.1,0.7-0.4,1.2-0.7l-0.1,2.1c-0.5,0.4-1,0.7-1.6,1C241.6,103.4,241,103.6,240.4,103.6z M243.8,93.3
		c-0.4,0-0.7,0.2-1.1,0.7c-0.3,0.5-0.7,1.1-1,1.9h2.1l0.2-0.5c0.2-0.7,0.4-1.2,0.3-1.6C244.3,93.5,244.2,93.3,243.8,93.3z"/>
	<path class="st1" d="M247.9,97.2c0.7-1.9,1.5-3.5,2.4-4.7c0.9-1.2,1.9-1.8,2.8-1.8c0.4,0,0.6,0.1,0.8,0.3c0.2,0.2,0.3,0.6,0.4,1
		l2.3-6.5h2.4l-6.3,17.8h-2.1l0.3-1.3c-0.4,0.5-0.8,0.9-1.2,1.2c-0.4,0.3-0.8,0.4-1.2,0.4c-1,0-1.5-0.6-1.6-1.7
		c-0.1-1.1,0.1-2.6,0.8-4.4L247.9,97.2z M250.2,97.5c-0.4,1.1-0.6,2-0.6,2.6c0,0.6,0.2,0.9,0.6,0.9c0.2,0,0.5-0.1,0.7-0.2
		c0.2-0.2,0.5-0.4,0.7-0.7l2-5.6c0-0.3-0.1-0.6-0.2-0.8c-0.1-0.2-0.3-0.3-0.5-0.3c-0.4,0-0.9,0.4-1.3,1.1c-0.4,0.7-0.9,1.6-1.3,2.8
		L250.2,97.5z"/>
	<path class="st1" d="M258.1,103.3h-2.4l4.4-12.3h2.4L258.1,103.3z M263.6,88h-2.4l0.9-2.5h2.4L263.6,88z"/>
	<path class="st1" d="M262.9,97.2c0.7-1.9,1.5-3.5,2.4-4.7c0.9-1.2,1.9-1.8,2.8-1.8c0.4,0,0.6,0.1,0.8,0.3c0.2,0.2,0.3,0.6,0.4,1
		l2.3-6.5h2.4l-6.3,17.8h-2.1l0.3-1.3c-0.4,0.5-0.8,0.9-1.2,1.2c-0.4,0.3-0.8,0.4-1.2,0.4c-1,0-1.5-0.6-1.6-1.7
		c-0.1-1.1,0.1-2.6,0.8-4.4L262.9,97.2z M265.2,97.5c-0.4,1.1-0.6,2-0.6,2.6c0,0.6,0.2,0.9,0.6,0.9c0.2,0,0.5-0.1,0.7-0.2
		c0.2-0.2,0.5-0.4,0.7-0.7l2-5.6c0-0.3-0.1-0.6-0.2-0.8c-0.1-0.2-0.3-0.3-0.5-0.3c-0.4,0-0.9,0.4-1.3,1.1c-0.4,0.7-0.9,1.6-1.3,2.8
		L265.2,97.5z"/>
	<path class="st1" d="M275,103.3c0-0.2,0-0.4,0.1-0.7c0-0.2,0.1-0.5,0.1-0.7c-0.4,0.5-0.8,0.9-1.2,1.2c-0.4,0.3-0.9,0.5-1.3,0.5
		c-0.7,0-1.2-0.3-1.4-1c-0.2-0.7-0.1-1.6,0.3-2.7c0.4-1.2,1-2.1,1.9-2.8c0.8-0.7,1.8-1,2.9-1h0.9l0.4-1c0.2-0.6,0.3-1.1,0.3-1.4
		s-0.2-0.5-0.5-0.5c-0.3,0-0.5,0.1-0.7,0.4c-0.2,0.3-0.4,0.6-0.6,1.1l-2.3,0l0-0.1c0.4-1.1,1-2,1.8-2.7c0.9-0.8,1.8-1.1,2.8-1.1
		c0.9,0,1.6,0.4,1.9,1.1c0.3,0.7,0.2,1.8-0.3,3.2l-1.8,5c-0.2,0.6-0.4,1.2-0.5,1.7c-0.1,0.5-0.2,1-0.3,1.5H275z M274.3,101.1
		c0.2,0,0.5-0.1,0.8-0.3c0.3-0.2,0.5-0.4,0.7-0.7l0.8-2.3h-0.9c-0.4,0-0.7,0.2-1,0.5c-0.3,0.3-0.5,0.8-0.7,1.3
		c-0.1,0.4-0.2,0.7-0.1,1C273.9,101,274,101.1,274.3,101.1z"/>
</g>
</svg>
